<svg xmlns="http://www.w3.org/2000/svg" viewBox="0 0 33 33" width="33" height="33">
  <defs>
    <linearGradient id="callGrad" x1="-11.29" y1="48.42" x2="45.66" y2="-14.24" gradientUnits="userSpaceOnUse">
      <stop offset="0" stop-color="#000BE2"/>
      <stop offset="0.492" stop-color="#00A3EA"/>
      <stop offset="1" stop-color="#1DC3C7"/>
    </linearGradient>
  </defs>
  <path fill="url(#callGrad)" fill-rule="evenodd" d="M32.1884,25.778L32.027,25.2867C31.6481,24.157 30.3992,22.978 29.2486,22.6622L25.0003,21.5008C23.8497,21.1885 22.2079,21.6096 21.3626,22.4551L19.826,23.992C14.2411,22.4797 9.8595,18.0973 8.3509,12.5114L9.8875,10.9745C10.7295,10.1324 11.1504,8.4903 10.8383,7.3359L9.6804,3.0868C9.3682,1.9359 8.1824,0.6868 7.0529,0.3079L6.5687,0.1464C5.4355,-0.2325 3.8183,0.1499 2.9764,0.9956L0.6751,3.2973C0.2647,3.7044 0.0015,4.8727 0.0015,4.8763C-0.0757,12.1816 2.787,19.2166 7.9509,24.385C13.1008,29.5359 20.1101,32.3956 27.3893,32.3323C27.4279,32.3323 28.6313,32.0762 29.0417,31.6656L31.343,29.3638C32.1849,28.5252 32.5637,26.9077 32.1884,25.778Z"/>
</svg>
